<?xml version="1.0" standalone="no"?>
<!DOCTYPE svg PUBLIC "-//W3C//DTD SVG 20010904//EN"
 "http://www.w3.org/TR/2001/REC-SVG-20010904/DTD/svg10.dtd">
<svg version="1.0" xmlns="http://www.w3.org/2000/svg"
 width="1016.000000pt" height="1016.000000pt" viewBox="0 0 1016.000000 1016.000000"
 preserveAspectRatio="xMidYMid meet">
<metadata>
Created by potrace 1.14, written by Peter Selinger 2001-2017
</metadata>
<g transform="translate(0.000000,1016.000000) scale(0.100000,-0.100000)"
fill="#000000" stroke="none">
<path d="M2610 7893 c-201 -15 -478 -71 -670 -134 -442 -146 -815 -380 -1145
-720 -425 -437 -677 -959 -772 -1594 -24 -169 -24 -571 0 -740 95 -635 347
-1157 772 -1594 488 -502 1099 -791 1800 -851 92 -8 835 -10 2570 -8 l2440 3
140 23 c647 105 1174 375 1616 828 427 439 681 962 776 1599 24 169 24 571 0
740 -68 456 -220 860 -457 1210 -194 287 -468 562 -755 757 -366 249 -737 391
-1214 465 -96 15 -330 17 -2581 18 -1361 1 -2495 0 -2520 -2z m480 -574 c548
-63 1075 -344 1437 -764 276 -320 447 -686 524 -1122 20 -109 23 -163 23 -358
0 -195 -3 -249 -23 -358 -115 -649 -451 -1169 -989 -1530 -119 -80 -382 -208
-527 -256 -139 -46 -316 -85 -464 -101 -139 -16 -496 -8 -616 15 -502 93 -917
311 -1256 662 -519 537 -737 1287 -588 2023 150 745 680 1373 1391 1650 347
135 713 182 1088 139z"/>
</g>
</svg>
