<svg width="23" height="23" viewBox="0 0 23 23" fill="none" xmlns="http://www.w3.org/2000/svg">
<path d="M1.0625 2.6839C1.0625 2.34336 1.19778 2.01677 1.43858 1.77598C1.67937 1.53518 2.00596 1.3999 2.3465 1.3999H5.1085C5.41251 1.40007 5.7066 1.5081 5.93843 1.70477C6.17025 1.90144 6.32478 2.17399 6.3745 2.4739L7.3245 8.1639C7.36961 8.43502 7.32653 8.71345 7.20161 8.95826C7.07668 9.20307 6.8765 9.40134 6.6305 9.5239L4.6445 10.5179C5.35688 12.2831 6.41776 13.8866 7.76377 15.2326C9.10978 16.5786 10.7133 17.6395 12.4785 18.3519L13.4725 16.3659C13.5951 16.1199 13.7933 15.9197 14.0381 15.7948C14.2829 15.6699 14.5614 15.6268 14.8325 15.6719L20.5225 16.6219C20.8226 16.6712 21.0954 16.8257 21.2921 17.0576C21.4888 17.2895 21.5967 17.5838 21.5965 17.8879V20.6499C21.5968 20.8186 21.5637 20.9857 21.4993 21.1416C21.4349 21.2975 21.3403 21.4391 21.221 21.5584C21.1017 21.6777 20.9601 21.7723 20.8042 21.8367C20.6483 21.9011 20.4812 21.9342 20.3125 21.9339H17.7465C15.5555 21.9342 13.3858 21.5028 11.3615 20.6644C9.33718 19.8261 7.49785 18.5972 5.94854 17.0479C4.39924 15.4986 3.17032 13.6592 2.33196 11.6349C1.4936 9.61059 1.06224 7.44095 1.0625 5.2499V2.6839Z" fill="#32D56F"/>
<path d="M16.9679 7.84197L21.1939 3.61597C21.4225 3.37275 21.5473 3.0501 21.542 2.71641C21.5367 2.38271 21.4017 2.06419 21.1656 1.82833C20.9295 1.59248 20.6108 1.45782 20.2771 1.4529C19.9434 1.44798 19.6209 1.57318 19.3779 1.80197L15.1519 6.02797V3.99197C15.1388 3.66046 14.9979 3.34689 14.7588 3.11697C14.5196 2.88705 14.2007 2.75863 13.8689 2.75863C13.5372 2.75863 13.2183 2.88705 12.9791 3.11697C12.7399 3.34689 12.599 3.66046 12.5859 3.99197V9.13197C12.5862 9.30023 12.6196 9.46679 12.6843 9.62211C12.749 9.77744 12.8437 9.91849 12.963 10.0372C13.0822 10.1559 13.2237 10.2499 13.3793 10.3139C13.535 10.3778 13.7017 10.4105 13.8699 10.41H18.9999C19.3405 10.41 19.6671 10.2747 19.9079 10.0339C20.1487 9.7931 20.2839 9.46651 20.2839 9.12597C20.2839 8.78543 20.1487 8.45884 19.9079 8.21804C19.6671 7.97725 19.3405 7.84197 18.9999 7.84197H16.9679Z" fill="#32D56F"/>
</svg>
