<?xml version="1.0" encoding="UTF-8"?>
<svg id="_Слой_2" data-name="Слой 2" xmlns="http://www.w3.org/2000/svg" viewBox="0 0 509.88 77.91">
  <defs>
    <style>
      .cls-1 {
        fill: #fff;
        stroke-width: 0px;
      }
    </style>
  </defs>
  <g id="_Слой_1-2" data-name="Слой 1">
    <g>
      <g>
        <path class="cls-1" d="M97.87,24.17c-1.54-1-3.43-1.5-5.66-1.5s-4.03.5-5.57,1.5c-1.54,1-2.72,2.44-3.55,4.34-.82,1.89-1.23,4.18-1.23,6.85s.41,4.96,1.23,6.85c.82,1.89,2,3.35,3.55,4.36,1.54,1.01,3.4,1.52,5.57,1.52s4.12-.5,5.66-1.5c1.54-1,2.72-2.45,3.55-4.36.82-1.91,1.23-4.2,1.23-6.87s-.41-4.99-1.23-6.87c-.82-1.88-2-3.32-3.55-4.32Z"/>
        <path class="cls-1" d="M127.06,0H35.38C15.84,0,0,15.84,0,35.38h0c0,19.54,15.84,35.38,35.38,35.38h91.67c19.54,0,35.38-15.84,35.38-35.38h0c0-19.54-15.84-35.38-35.38-35.38ZM35.38,63.69c-15.63,0-28.31-12.67-28.31-28.31S19.75,7.08,35.38,7.08s28.31,12.67,28.31,28.31-12.67,28.31-28.31,28.31ZM105.47,41.97c-.68,1.97-1.63,3.64-2.86,5.02-1.23,1.38-2.72,2.44-4.47,3.19-1.75.75-3.72,1.12-5.92,1.12s-4.1-.37-5.86-1.12c-1.76-.75-3.26-1.81-4.49-3.19-1.23-1.38-2.18-3.05-2.84-5.02-.66-1.97-.99-4.17-.99-6.61s.33-4.68.99-6.63c.66-1.95,1.61-3.61,2.84-4.98,1.23-1.37,2.72-2.42,4.47-3.17,1.75-.75,3.71-1.12,5.88-1.12s4.18.37,5.92,1.1c1.75.73,3.24,1.79,4.49,3.17,1.25,1.38,2.2,3.05,2.86,5,.66,1.95.99,4.15.99,6.59s-.34,4.68-1.01,6.65ZM124.45,29.5v2.78h-6.17v18.63h-3.57v-18.63h-4.23v-2.78h4.23v-.75c0-2.85.71-5.01,2.14-6.47,1.42-1.47,3.62-2.29,6.59-2.47l1.72-.09.31,2.73-2.03.13c-1.2.09-2.19.35-2.95.79-.76.44-1.32,1.07-1.67,1.89-.35.82-.53,1.84-.53,3.04v1.19h6.17ZM140.22,29.5v2.78h-6.17v18.63h-3.57v-18.63h-4.23v-2.78h4.23v-.75c0-2.85.71-5.01,2.14-6.47,1.42-1.47,3.62-2.29,6.59-2.47l1.72-.09.31,2.73-2.03.13c-1.2.09-2.19.35-2.95.79-.76.44-1.32,1.07-1.67,1.89-.35.82-.53,1.84-.53,3.04v1.19h6.17Z"/>
      </g>
      <g>
        <path class="cls-1" d="M219.96,23.76c-2.88-1.7-6.22-2.56-10.03-2.56s-7.04.84-9.91,2.52c-2.87,1.68-5.12,4.02-6.75,7.02-1.63,3-2.45,6.47-2.45,10.41s.8,7.34,2.4,10.34c1.6,3,3.83,5.35,6.7,7.05,2.87,1.7,6.21,2.55,10.01,2.55s7.11-.85,9.99-2.54c2.88-1.69,5.13-4.04,6.76-7.04,1.62-3,2.43-6.46,2.43-10.38s-.8-7.34-2.42-10.34c-1.61-3-3.86-5.35-6.74-7.05ZM216.78,49.12c-1.5,2.06-3.79,3.1-6.84,3.1s-5.21-1-6.74-2.99-2.29-4.68-2.29-8.07c0-2.19.32-4.12.96-5.77s1.63-2.95,2.96-3.89c1.33-.93,3.03-1.4,5.11-1.4,3.01,0,5.28,1,6.81,3.01,1.53,2.01,2.29,4.69,2.29,8.05s-.75,5.9-2.26,7.96Z"/>
        <path class="cls-1" d="M248.57,11.76h-9.52v10.5h-6.44v7.35h6.44v14.42c0,2.26.02,4.29.07,6.07.05,1.79.54,3.54,1.47,5.27,1.03,1.84,2.53,3.18,4.5,4.01,1.97.83,4.21,1.27,6.72,1.33,2.51.06,5.07-.16,7.68-.65v-7.91c-2.24.3-4.28.4-6.12.28-1.84-.12-3.19-.84-4.02-2.17-.44-.7-.68-1.64-.72-2.82-.03-1.18-.05-2.5-.05-3.97v-13.86h10.92v-7.35h-10.92v-10.5Z"/>
        <path class="cls-1" d="M306.25,23.49c-2.35-1.52-5.2-2.28-8.54-2.28-3.62,0-6.77.86-9.45,2.59-2.68,1.73-4.77,4.09-6.25,7.09-1.48,3-2.22,6.42-2.22,10.27s.73,7.17,2.19,10.19c1.46,3.01,3.49,5.39,6.11,7.14,2.61,1.75,5.66,2.62,9.13,2.62,3.76,0,6.9-.88,9.42-2.62.28-.19.54-.4.81-.6v2.18h8.4V9.66h-9.59v13.83ZM306.6,47.18c-.56,1.73-1.48,3.07-2.75,4.02-1.27.96-2.97,1.44-5.09,1.44s-3.73-.51-5.04-1.54c-1.31-1.03-2.27-2.41-2.9-4.15-.63-1.74-.95-3.67-.95-5.79s.33-4.02.98-5.76c.65-1.74,1.66-3.13,3.03-4.16,1.36-1.04,3.11-1.56,5.23-1.56,1.98,0,3.59.48,4.81,1.44,1.23.96,2.12,2.3,2.68,4.02.56,1.73.84,3.73.84,6.02s-.28,4.29-.84,6.02Z"/>
        <path class="cls-1" d="M352.68,23.76c-2.88-1.7-6.22-2.56-10.03-2.56s-7.04.84-9.91,2.52c-2.87,1.68-5.12,4.02-6.75,7.02-1.63,3-2.45,6.47-2.45,10.41s.8,7.34,2.4,10.34c1.6,3,3.83,5.35,6.7,7.05,2.87,1.7,6.21,2.55,10.01,2.55s7.11-.85,9.99-2.54c2.88-1.69,5.13-4.04,6.76-7.04,1.62-3,2.43-6.46,2.43-10.38s-.8-7.34-2.42-10.34c-1.61-3-3.86-5.35-6.74-7.05ZM349.49,49.12c-1.5,2.06-3.79,3.1-6.84,3.1s-5.21-1-6.74-2.99-2.29-4.68-2.29-8.07c0-2.19.32-4.12.96-5.77s1.63-2.95,2.96-3.89c1.33-.93,3.03-1.4,5.11-1.4,3.01,0,5.28,1,6.81,3.01,1.53,2.01,2.29,4.69,2.29,8.05s-.75,5.9-2.26,7.96Z"/>
        <rect class="cls-1" x="370.23" y="8.61" width="9.52" height="51.45"/>
        <path class="cls-1" d="M415.8,24.35c-.22-.17-.44-.35-.67-.51-2.45-1.75-5.47-2.62-9.06-2.62s-6.77.86-9.45,2.59c-2.68,1.73-4.77,4.09-6.25,7.09-1.48,3-2.22,6.42-2.22,10.27s.73,7.17,2.19,10.19c1.46,3.01,3.49,5.39,6.11,7.14,2.61,1.75,5.66,2.62,9.13,2.62s6.58-.8,9.03-2.38v3.78c.05,1.4-.31,2.57-1.07,3.52-.76.95-1.77,1.66-3.03,2.14-1.26.48-2.6.72-4.02.72-1.33,0-2.56-.29-3.69-.88-1.13-.58-2-1.44-2.61-2.55l-8.82,4.27c.96,1.63,2.2,3.06,3.73,4.29,1.53,1.23,3.26,2.18,5.2,2.87,1.94.69,3.98,1.03,6.12,1.03,2.78,0,5.35-.37,7.74-1.1,2.38-.73,4.39-1.85,6.04-3.34s2.77-3.4,3.38-5.7c.21-.82.36-1.64.44-2.47.08-.83.12-1.71.12-2.64V22.26h-8.33v2.09ZM412.21,51.2c-1.27.96-2.97,1.44-5.09,1.44s-3.73-.51-5.04-1.54c-1.31-1.03-2.27-2.41-2.9-4.15-.63-1.74-.95-3.67-.95-5.79s.33-4.02.98-5.76c.65-1.74,1.66-3.13,3.03-4.16,1.36-1.04,3.11-1.56,5.23-1.56,1.98,0,3.59.48,4.81,1.44,1.23.96,2.12,2.3,2.68,4.02.56,1.73.84,3.73.84,6.02s-.28,4.29-.84,6.02c-.56,1.73-1.48,3.07-2.75,4.02Z"/>
        <path class="cls-1" d="M460.97,23.76c-2.88-1.7-6.22-2.56-10.03-2.56s-7.04.84-9.91,2.52c-2.87,1.68-5.12,4.02-6.75,7.02-1.63,3-2.45,6.47-2.45,10.41s.8,7.34,2.4,10.34c1.6,3,3.83,5.35,6.7,7.05,2.87,1.7,6.21,2.55,10.01,2.55s7.11-.85,9.99-2.54c2.88-1.69,5.13-4.04,6.76-7.04,1.62-3,2.43-6.46,2.43-10.38s-.8-7.34-2.42-10.34c-1.61-3-3.86-5.35-6.74-7.05ZM457.78,49.12c-1.5,2.06-3.79,3.1-6.84,3.1s-5.21-1-6.74-2.99-2.29-4.68-2.29-8.07c0-2.19.32-4.12.96-5.77s1.63-2.95,2.96-3.89c1.33-.93,3.03-1.4,5.11-1.4,3.01,0,5.28,1,6.81,3.01,1.53,2.01,2.29,4.69,2.29,8.05s-.75,5.9-2.26,7.96Z"/>
        <polygon class="cls-1" points="500.36 22.26 491.4 48.44 482.44 22.26 472.92 22.26 486.64 60.06 496.16 60.06 509.88 22.26 500.36 22.26"/>
      </g>
    </g>
  </g>
</svg>