<?xml version="1.0" encoding="UTF-8"?>
<svg id="_Слой_2" data-name="Слой 2" xmlns="http://www.w3.org/2000/svg" viewBox="0 0 529.83 70.77">
  <defs>
    <style>
      .cls-1 {
        fill: #fff;
        stroke-width: 0px;
      }
    </style>
  </defs>
  <g id="_Слой_1-2" data-name="Слой 1">
    <g>
      <g>
        <path class="cls-1" d="M127.06,0H35.38C15.84,0,0,15.84,0,35.38h0c0,19.54,15.84,35.38,35.38,35.38h91.67c19.54,0,35.38-15.84,35.38-35.38h0c0-19.54-15.84-35.38-35.38-35.38ZM35.38,63.69c-15.63,0-28.31-12.67-28.31-28.31S19.75,7.08,35.38,7.08s28.31,12.67,28.31,28.31-12.67,28.31-28.31,28.31ZM105.47,41.97c-.68,1.97-1.63,3.64-2.86,5.02-1.23,1.38-2.72,2.44-4.47,3.19-1.75.75-3.72,1.12-5.92,1.12s-4.1-.37-5.86-1.12c-1.76-.75-3.26-1.81-4.49-3.19-1.23-1.38-2.18-3.05-2.84-5.02-.66-1.97-.99-4.17-.99-6.61s.33-4.68.99-6.63c.66-1.95,1.61-3.61,2.84-4.98,1.23-1.37,2.72-2.42,4.47-3.17,1.75-.75,3.71-1.12,5.88-1.12s4.18.37,5.92,1.1c1.75.73,3.24,1.79,4.49,3.17,1.25,1.38,2.2,3.05,2.86,5,.66,1.95.99,4.15.99,6.59s-.34,4.68-1.01,6.65ZM124.45,29.5v2.78h-6.17v18.63h-3.57v-18.63h-4.23v-2.78h4.23v-.75c0-2.85.71-5.01,2.14-6.47,1.42-1.47,3.62-2.29,6.59-2.47l1.72-.09.31,2.73-2.03.13c-1.2.09-2.19.35-2.95.79-.76.44-1.32,1.07-1.67,1.89-.35.82-.53,1.84-.53,3.04v1.19h6.17ZM140.22,29.5v2.78h-6.17v18.63h-3.57v-18.63h-4.23v-2.78h4.23v-.75c0-2.85.71-5.01,2.14-6.47,1.42-1.47,3.62-2.29,6.59-2.47l1.72-.09.31,2.73-2.03.13c-1.2.09-2.19.35-2.95.79-.76.44-1.32,1.07-1.67,1.89-.35.82-.53,1.84-.53,3.04v1.19h6.17Z"/>
        <path class="cls-1" d="M97.87,24.17c-1.54-1-3.43-1.5-5.66-1.5s-4.03.5-5.57,1.5c-1.54,1-2.72,2.44-3.55,4.34-.82,1.89-1.23,4.18-1.23,6.85s.41,4.96,1.23,6.85c.82,1.89,2,3.35,3.55,4.36,1.54,1.01,3.4,1.52,5.57,1.52s4.12-.5,5.66-1.5c1.54-1,2.72-2.45,3.55-4.36.82-1.91,1.23-4.2,1.23-6.87s-.41-4.99-1.23-6.87c-.82-1.88-2-3.32-3.55-4.32Z"/>
      </g>
      <g>
        <path class="cls-1" d="M209.93,61.11c-3.8,0-7.14-.85-10.01-2.55-2.87-1.7-5.1-4.05-6.7-7.05-1.6-3-2.4-6.45-2.4-10.34s.82-7.41,2.45-10.41c1.63-3,3.88-5.34,6.75-7.02,2.87-1.68,6.17-2.52,9.91-2.52s7.15.85,10.03,2.56c2.88,1.7,5.13,4.05,6.74,7.05,1.61,3,2.42,6.45,2.42,10.34s-.81,7.38-2.43,10.38c-1.62,3-3.87,5.34-6.76,7.04-2.88,1.69-6.21,2.54-9.99,2.54ZM209.93,52.22c3.06,0,5.34-1.03,6.84-3.1s2.26-4.72,2.26-7.96-.76-6.04-2.29-8.05c-1.53-2.01-3.8-3.01-6.81-3.01-2.08,0-3.78.47-5.11,1.4-1.33.93-2.32,2.23-2.96,3.89s-.96,3.58-.96,5.77c0,3.38.76,6.07,2.29,8.07s3.77,2.99,6.74,2.99Z"/>
        <path class="cls-1" d="M245.35,60.06v-29.4h-12.39v-8.4h34.3v8.4h-12.39v29.4h-9.52Z"/>
        <path class="cls-1" d="M285.11,68.46v-15.75c2.01,0,3.44-.7,4.29-2.1.85-1.4,1.52-3.9,2.01-7.49.28-2.08.52-4.26.72-6.54.2-2.29.37-4.63.51-7.04.14-2.4.27-4.83.38-7.28h29.19v30.45h3.85v15.75h-8.96v-8.4h-23.03v8.4h-8.96ZM297.29,52.71h15.4v-23.1h-11.41c-.07,1.28-.15,2.57-.23,3.85-.08,1.28-.17,2.56-.28,3.81-.1,1.26-.2,2.48-.3,3.66s-.2,2.3-.31,3.38c-.21,2.05-.5,3.72-.88,5-.37,1.28-1.04,2.42-2,3.4Z"/>
        <path class="cls-1" d="M350.07,61.11c-3.8,0-7.14-.85-10.01-2.55-2.87-1.7-5.1-4.05-6.7-7.05-1.6-3-2.4-6.45-2.4-10.34s.82-7.41,2.45-10.41c1.63-3,3.88-5.34,6.75-7.02,2.87-1.68,6.17-2.52,9.91-2.52s7.15.85,10.03,2.56c2.88,1.7,5.13,4.05,6.74,7.05,1.61,3,2.42,6.45,2.42,10.34s-.81,7.38-2.43,10.38c-1.62,3-3.87,5.34-6.76,7.04-2.88,1.69-6.21,2.54-9.99,2.54ZM350.07,52.22c3.06,0,5.34-1.03,6.84-3.1s2.26-4.72,2.26-7.96-.76-6.04-2.29-8.05c-1.53-2.01-3.8-3.01-6.81-3.01-2.08,0-3.78.47-5.11,1.4-1.33.93-2.32,2.23-2.96,3.89s-.96,3.58-.96,5.77c0,3.38.76,6.07,2.29,8.07s3.77,2.99,6.74,2.99Z"/>
        <path class="cls-1" d="M373.45,60.06v-7.91c1.38.26,2.44.24,3.19-.05.75-.29,1.31-.88,1.7-1.75.38-.88.72-2.07,1-3.59.37-2.01.71-4.35,1-7.04.29-2.68.54-5.52.75-8.52.21-3,.4-5.98.56-8.94h28.56v37.8h-9.52v-28.91h-10.71c-.09,1.21-.22,2.66-.37,4.34-.15,1.68-.32,3.42-.49,5.23-.17,1.81-.37,3.53-.58,5.18s-.43,3.05-.67,4.22c-.56,2.96-1.39,5.3-2.48,7-1.1,1.7-2.6,2.79-4.52,3.27-1.91.48-4.39.37-7.42-.33Z"/>
        <path class="cls-1" d="M420,60.06V22.26h27.3v8.89h-17.78v28.91h-9.52Z"/>
        <path class="cls-1" d="M470.26,61.11c-3.8,0-7.14-.85-10.01-2.55-2.87-1.7-5.1-4.05-6.7-7.05-1.6-3-2.4-6.45-2.4-10.34s.82-7.41,2.45-10.41c1.63-3,3.88-5.34,6.75-7.02,2.87-1.68,6.17-2.52,9.91-2.52s7.15.85,10.03,2.56c2.88,1.7,5.13,4.05,6.74,7.05,1.61,3,2.42,6.45,2.42,10.34s-.81,7.38-2.43,10.38c-1.62,3-3.87,5.34-6.76,7.04-2.88,1.69-6.21,2.54-9.99,2.54ZM470.26,52.22c3.06,0,5.34-1.03,6.84-3.1s2.26-4.72,2.26-7.96-.76-6.04-2.29-8.05c-1.53-2.01-3.8-3.01-6.81-3.01-2.08,0-3.78.47-5.11,1.4-1.33.93-2.32,2.23-2.96,3.89s-.96,3.58-.96,5.77c0,3.38.76,6.07,2.29,8.07s3.77,2.99,6.74,2.99Z"/>
        <path class="cls-1" d="M497.07,60.06V22.26h17.71c1.4,0,2.62.08,3.67.23,1.05.15,1.93.33,2.62.54,1.73.51,3.3,1.52,4.73,3.01,1.42,1.49,2.14,3.66,2.14,6.51,0,1.68-.27,3.04-.81,4.08-.54,1.04-1.25,1.9-2.14,2.57-.42.3-.84.56-1.26.77s-.84.37-1.26.49c.98.14,1.87.4,2.66.77,1.26.56,2.36,1.44,3.29,2.64.93,1.2,1.4,2.98,1.4,5.34,0,2.52-.61,4.67-1.84,6.44-1.23,1.77-3.06,3.01-5.51,3.71-.84.23-1.83.41-2.96.53-1.13.12-2.32.17-3.55.17h-18.9ZM506.73,37.52h5.81c.75,0,1.45-.04,2.12-.12.67-.08,1.22-.23,1.66-.44.61-.28,1.06-.73,1.36-1.35s.46-1.31.46-2.08c0-.82-.17-1.56-.51-2.22-.34-.67-.89-1.11-1.66-1.35-.51-.19-1.16-.29-1.94-.31-.78-.02-1.28-.04-1.49-.04h-5.81v7.91ZM506.73,52.85h8.54c.49,0,1-.05,1.52-.16.52-.1,1-.24,1.42-.4.68-.28,1.16-.76,1.45-1.44.29-.68.44-1.36.44-2.06,0-.98-.22-1.75-.65-2.31-.43-.56-.92-.96-1.45-1.19-.44-.21-.93-.33-1.45-.37-.52-.03-.95-.05-1.28-.05h-8.54v7.98Z"/>
      </g>
    </g>
  </g>
</svg>