<?xml version="1.0" encoding="UTF-8"?><svg id="a" xmlns="http://www.w3.org/2000/svg" viewBox="0 0 84.55 40"><defs><style>.c{fill:#0e0f11;}.c,.d{stroke-width:0px;}.d{fill:#fff;}</style></defs><g id="b"><path class="c" d="M33.82,34.76c-8.14,0-14.76-6.62-14.76-14.76s6.62-14.76,14.76-14.76h34.54c8.14,0,14.76,6.62,14.76,14.76s-6.62,14.76-14.76,14.76h-34.54Z"/><path class="c" d="M68.36,6.67c7.36,0,13.33,5.97,13.33,13.33h0c0,7.36-5.97,13.33-13.33,13.33h-34.54c-7.36,0-13.33-5.97-13.33-13.33h0c0-7.36,5.97-13.33,13.33-13.33h34.54M68.36,3.81h-34.54c-8.92,0-16.19,7.27-16.19,16.19s7.27,16.19,16.19,16.19h34.54c8.92,0,16.19-7.27,16.19-16.19s-7.27-16.19-16.19-16.19h0Z"/><path class="d" d="M20,38.57C9.76,38.57,1.43,30.24,1.43,20S9.76,1.43,20,1.43s18.57,8.33,18.57,18.57-8.33,18.57-18.57,18.57Z"/><path class="c" d="M20,2.86c9.47,0,17.14,7.68,17.14,17.14s-7.68,17.14-17.14,17.14S2.86,29.47,2.86,20,10.53,2.86,20,2.86M20,0C8.97,0,0,8.97,0,20s8.97,20,20,20,20-8.97,20-20S31.03,0,20,0h0Z"/><path class="d" d="M48.46,26.77c-1.05,0-1.99-.17-2.83-.52-.84-.35-1.56-.86-2.16-1.53s-1.06-1.47-1.38-2.4-.49-1.97-.49-3.13.16-2.2.49-3.13c.32-.93.78-1.72,1.37-2.39.59-.67,1.31-1.17,2.16-1.52.85-.35,1.79-.52,2.84-.52s1.99.17,2.83.52,1.56.86,2.16,1.5c.6.66,1.06,1.45,1.37,2.38.31.93.48,1.97.48,3.13s-.16,2.21-.49,3.14-.78,1.74-1.37,2.41-1.31,1.18-2.14,1.53c-.84.35-1.78.52-2.83.52h0ZM48.46,25.06c1.01,0,1.87-.23,2.58-.7s1.26-1.13,1.65-2.01c.38-.88.58-1.93.58-3.16s-.19-2.3-.56-3.17c-.38-.88-.92-1.53-1.64-1.99s-1.58-.68-2.6-.68-1.87.23-2.59.68c-.72.46-1.27,1.11-1.65,1.99-.38.88-.56,1.93-.56,3.17s.19,2.29.56,3.16c.38.88.92,1.55,1.65,2.01.71.46,1.58.7,2.59.7h0Z"/><path class="d" d="M58.64,26.59v-8.73h-1.99v-1.47h2.51l-.52.5v-.77c0-1.38.35-2.43,1.05-3.13s1.77-1.1,3.23-1.18l.86-.07.14,1.47-.96.07c-.57.03-1.04.14-1.38.34-.35.2-.61.49-.77.86-.17.37-.25.84-.25,1.39v.84l-.28-.31h3.16v1.47h-2.9v8.73h-1.9Z"/><path class="d" d="M65.76,26.59v-8.73h-1.99v-1.47h2.51l-.52.5v-.77c0-1.38.35-2.43,1.05-3.13.7-.7,1.77-1.1,3.23-1.18l.86-.07.14,1.47-.96.07c-.57.03-1.04.14-1.38.34-.35.2-.61.49-.77.86-.17.37-.25.84-.25,1.39v.84l-.28-.31h3.16v1.47h-2.9v8.73h-1.9Z"/></g></svg>